<?xml version="1.0" standalone="no"?>
<!DOCTYPE svg PUBLIC "-//W3C//DTD SVG 20010904//EN"
 "http://www.w3.org/TR/2001/REC-SVG-20010904/DTD/svg10.dtd">
<svg version="1.0" xmlns="http://www.w3.org/2000/svg"
 width="192.000000pt" height="192.000000pt" viewBox="0 0 192.000000 192.000000"
 preserveAspectRatio="xMidYMid meet">
<metadata>
Created by potrace 1.16, written by Peter Selinger 2001-2019
</metadata>
<g transform="translate(0.000000,192.000000) scale(0.100000,-0.100000)"
fill="#000000" stroke="none">
<path d="M1215 1907 c17 -7 39 -18 50 -25 11 -7 61 -37 110 -66 50 -29 95 -63
101 -75 6 -12 20 -28 30 -36 41 -31 -30 -2 -76 31 -79 56 -221 120 -152 68 18
-14 1 -11 -101 18 -46 14 -62 2 -19 -13 18 -6 32 -15 32 -20 0 -4 20 -20 45
-35 25 -14 45 -28 45 -30 0 -4 -31 1 -72 13 -30 8 -20 -14 12 -27 17 -7 33
-17 36 -22 3 -5 -12 0 -35 11 -22 12 -43 21 -47 21 -13 0 31 -42 59 -57 16 -8
26 -17 24 -20 -3 -3 -20 5 -36 17 -17 12 -41 20 -54 18 -19 -3 -15 -7 26 -32
49 -29 59 -40 30 -29 -10 3 -1 -11 21 -31 43 -42 62 -40 25 2 l-24 27 27 -24
c15 -13 31 -34 34 -45 4 -12 17 -31 30 -44 94 -95 188 -258 204 -354 13 -73 9
-298 -5 -330 -4 -11 -3 -18 3 -18 6 0 14 15 18 33 6 30 8 30 16 11 13 -29 -13
-130 -58 -221 -32 -65 -134 -193 -154 -193 -4 0 -33 -15 -64 -34 -71 -43 -164
-66 -263 -66 -103 0 -174 19 -299 81 -87 44 -114 63 -181 133 -77 80 -82 88
-130 221 -8 22 -19 44 -24 49 -14 15 -22 0 -11 -21 5 -10 19 -49 32 -88 12
-38 38 -94 58 -124 39 -58 151 -157 192 -169 14 -4 54 -23 90 -42 53 -28 61
-35 42 -38 -16 -2 -22 -8 -18 -18 7 -17 -17 -12 -67 13 -50 25 -41 5 12 -27
52 -33 72 -68 29 -51 -52 20 -143 83 -143 98 0 9 -6 18 -14 21 -10 3 -12 0 -7
-14 7 -17 6 -17 -14 1 -13 12 -17 21 -10 25 6 4 8 14 4 23 -3 9 -1 17 4 17 15
0 -30 69 -45 70 -7 0 -13 5 -13 11 0 7 -7 17 -15 23 -9 6 -30 37 -48 69 -18
32 -36 58 -41 57 -10 -2 -46 66 -46 86 0 7 -5 14 -11 16 -19 6 -9 200 17 328
5 25 5 25 -11 5 -17 -20 -17 -20 -10 5 14 51 60 135 75 135 8 0 17 11 18 25 2
14 9 31 15 39 10 12 9 14 -5 8 -26 -9 -22 6 9 34 20 18 25 20 20 7 -8 -22 6
-23 23 -3 10 12 10 15 -1 15 -8 0 -4 9 9 23 30 32 27 40 -8 22 -16 -8 -36 -15
-44 -15 -11 0 -39 -29 -83 -89 -2 -2 -5 -2 -8 1 -3 3 6 19 20 36 25 30 35 56
13 34 -22 -22 -30 -12 -13 16 21 33 82 92 96 92 6 0 23 7 39 15 20 10 30 12
30 4 0 -6 16 -1 35 11 23 14 45 20 62 17 15 -3 36 -1 47 3 12 5 33 11 48 14
35 8 81 47 119 104 24 36 30 53 26 78 -11 67 -84 144 -136 144 -14 0 -39 5
-56 11 -88 32 -223 -44 -417 -232 -164 -160 -233 -276 -277 -462 -12 -53 -14
-224 -2 -192 5 12 10 -10 14 -65 8 -102 21 -151 86 -324 25 -66 52 -99 67 -83
4 4 0 24 -10 43 -9 20 -15 39 -12 41 2 2 7 -4 10 -15 4 -12 16 -19 31 -19 29
0 28 -2 15 32 -7 18 -7 24 1 20 6 -4 13 2 16 14 9 36 29 23 24 -16 -1 -6 7
-17 17 -25 11 -7 27 -28 36 -46 9 -17 21 -32 26 -32 6 0 10 -7 10 -15 0 -14
12 -20 33 -16 5 1 6 -3 3 -8 -3 -5 8 -26 24 -46 17 -21 30 -34 30 -30 0 4 20
-11 44 -33 45 -42 132 -89 241 -132 33 -13 79 -38 103 -55 42 -29 47 -30 150
-30 224 0 431 84 606 245 40 36 53 45 39 25 -38 -55 -137 -152 -173 -170 -19
-9 -43 -24 -52 -33 -38 -32 -15 -29 57 7 71 37 101 40 53 7 -12 -9 -18 -19
-14 -23 4 -4 10 -3 14 2 4 6 21 17 37 25 17 8 38 22 48 32 10 10 27 18 37 18
11 0 20 5 20 11 0 6 20 33 44 60 24 27 61 75 82 106 38 58 104 197 104 221 0
7 7 15 15 18 8 4 15 13 15 21 0 8 -5 11 -12 8 -7 -4 -4 1 7 10 14 11 16 18 8
23 -8 5 -9 20 -2 52 4 25 11 101 15 170 5 109 4 136 -15 207 -12 46 -23 101
-25 122 -2 22 -15 61 -28 88 -13 26 -35 69 -47 95 -13 25 -45 74 -72 107 -27
34 -49 65 -49 69 0 10 -137 122 -150 122 -5 0 -15 9 -22 20 -7 11 -18 20 -24
20 -6 0 -17 7 -24 15 -7 8 -22 15 -34 15 -12 0 -27 5 -34 12 -6 6 -17 13 -24
14 -7 1 -33 9 -57 18 -24 9 -62 16 -85 15 l-41 -1 30 -11z"/>
</g>
</svg>
